<?xml version="1.0" encoding="UTF-8" standalone="no"?>
<!-- Generator: Adobe Illustrator 18.0.0, SVG Export Plug-In . SVG Version: 6.00 Build 0)  -->

<svg
   xmlns:dc="http://purl.org/dc/elements/1.1/"
   xmlns:cc="http://creativecommons.org/ns#"
   xmlns:rdf="http://www.w3.org/1999/02/22-rdf-syntax-ns#"
   xmlns:svg="http://www.w3.org/2000/svg"
   xmlns="http://www.w3.org/2000/svg"
   xmlns:sodipodi="http://sodipodi.sourceforge.net/DTD/sodipodi-0.dtd"
   xmlns:inkscape="http://www.inkscape.org/namespaces/inkscape"
   version="1.1"
   id="Layer_1"
   x="0px"
   y="0px"
   width="277px"
   height="132px"
   viewBox="0 0 277 132"
   enable-background="new 0 0 277 132"
   xml:space="preserve"
   inkscape:version="0.91 r13725"
   sodipodi:docname="logo-big.svg"><metadata
     id="metadata51"><rdf:RDF><cc:Work
         rdf:about=""><dc:format>image/svg+xml</dc:format><dc:type
           rdf:resource="http://purl.org/dc/dcmitype/StillImage" /></cc:Work></rdf:RDF></metadata><defs
     id="defs49" /><sodipodi:namedview
     pagecolor="#ffffff"
     bordercolor="#666666"
     borderopacity="1"
     objecttolerance="10"
     gridtolerance="10"
     guidetolerance="10"
     inkscape:pageopacity="0"
     inkscape:pageshadow="2"
     inkscape:window-width="1885"
     inkscape:window-height="1056"
     id="namedview47"
     showgrid="false"
     inkscape:zoom="1.0758123"
     inkscape:cx="-87.840604"
     inkscape:cy="66"
     inkscape:window-x="35"
     inkscape:window-y="24"
     inkscape:window-maximized="1"
     inkscape:current-layer="Layer_1" /><g
     id="g3"
     style="fill:#000000;fill-opacity:1"><path
       fill="#4A3728"
       d="M43.5,122.9c-0.6-0.3-0.8-0.8-0.8-1.5c0-6.9,0-13.7,0-20.7c0-1.1,0.5-1.5,1.5-1.4c0.5,0.1,0.8,0.4,0.9,0.9   c0,0.2,0,0.5,0,0.8c0,2.6,0,5.3,0,7.9c0,0.6,0,0.6,0.6,0.6c2.9,0,5.9,0,8.8,0c0.6,0,0.6,0,0.6-0.6c0-2.5,0-5.1,0-7.6   c0-0.3,0-0.5,0-0.8c0-0.9,0.5-1.3,1.4-1.2c0.5,0.1,0.9,0.4,1,0.9c0,0.2,0,0.5,0,0.7c0,6.8,0,13.5,0,20.4c0,0.7-0.1,1.2-0.8,1.6   c-0.3,0-0.6,0-0.9,0c-0.8-0.2-1-0.8-1-1.6c0-2.5,0-5,0-7.5c0-0.2,0-0.5,0-0.7c0-0.8-0.1-0.9-0.9-0.9c-2.6,0-5.1,0-7.7,0   c-0.9,0-1,0.1-1,1c0,2.7,0,5.5,0,8.2c0,0.7-0.2,1.3-1,1.5C44.1,122.9,43.8,122.9,43.5,122.9z"
       id="path5"
       style="fill:#000000;fill-opacity:1" /><path
       fill="#4A3728"
       d="M149.7,122.9c-0.1-0.1-0.2-0.1-0.3-0.1c-2.7-0.7-4.2-2.4-4.5-5.3c-0.1-0.6-0.1-1.2-0.1-1.8   c0-3.1,0-6.1,0-9.2c0-1,0.1-2,0.3-3.1c0.6-2,1.9-3.4,3.8-3.9c2-0.5,4-0.6,5.9,0c2.7,0.7,3.9,2.7,4.2,5.1c0.1,1-0.4,1.5-1.3,1.5   c-0.6,0-0.9-0.3-1.1-0.9c-0.1-0.3-0.1-0.7-0.2-1c-0.4-1.5-1.4-2.4-2.9-2.6c-0.9-0.2-1.8-0.2-2.6-0.1c-2.1,0.3-3.3,1.5-3.5,3.8   c-0.1,0.6-0.1,1.1-0.1,1.7c0,2.8,0,5.6,0,8.4c0,0.7,0.1,1.5,0.2,2.2c0.4,1.7,1.4,2.8,3.2,3.2c1,0.2,2.1,0.2,3.1-0.1   c1.5-0.3,2.4-1.2,2.7-2.6c0.1-0.3,0.1-0.5,0.2-0.8c0.2-0.8,0.6-1.1,1.5-1c0.7,0.1,1,0.5,1,1.3c-0.1,1.8-1,4.1-3.4,5.1   c-0.4,0.2-0.9,0.3-1.3,0.5C152.7,122.9,151.2,122.9,149.7,122.9z"
       id="path7"
       style="fill:#000000;fill-opacity:1" /><path
       fill="#4A3728"
       d="M94.8,122.9c-0.7-0.3-0.8-0.8-0.8-1.5c0-4.6,0-9.1,0-13.6c0-2.2,0-4.5,0-6.7c0-0.2,0-0.4,0-0.6   c0.1-0.7,0.4-1.1,1.1-1.1c0.8,0,1.2,0.3,1.3,1c0,0.2,0,0.5,0,0.7c0,6.7,0,13.4,0,20.2c0,0.7-0.1,1.3-0.8,1.7   C95.4,122.9,95.1,122.9,94.8,122.9z"
       id="path9"
       style="fill:#000000;fill-opacity:1" /><path
       fill="#4A3728"
       d="M151.1,91.3c-1.2,0-2.4-0.1-3.5-0.5c-1.9-0.6-3.2-1.9-3.8-4c0-0.1-0.1-0.3-0.1-0.4c-0.1-0.7,0-1.4,0.6-1.9   c0.7-0.5,1.4-0.5,2.2-0.2c0.3,0.1,0.5,0.3,0.7,0.6c0.1,0.2,0.2,0.3,0.2,0.5c0.5,1.8,1.7,2.4,3.4,2.5c0.7,0,1.3,0,2-0.2   c1-0.3,1.6-0.9,1.9-1.9c0.3-1,0.3-2,0.1-3.1c-0.2-0.8-0.7-1.3-1.5-1.5c-0.6-0.1-1.2-0.1-1.7-0.1c-1.2,0-2.4,0.1-3.6-0.2   c-2.3-0.4-3.5-1.7-3.8-4.1c-0.2-1.1-0.2-2.3,0-3.5c0.4-3,2.2-5,5.1-5.6c1.6-0.3,3.2-0.3,4.8,0.1c2,0.5,3.3,1.7,4,3.8   c0.1,0.2,0.1,0.3,0.2,0.5c0.1,0.7,0,1.4-0.6,1.9c-0.6,0.5-1.4,0.5-2.2,0.3c-0.5-0.2-0.8-0.5-1-1c-0.5-1.6-1.6-2.5-3.9-2.2   c-1.4,0.2-2.3,0.9-2.6,2.3c-0.2,0.8-0.2,1.7-0.1,2.5s0.6,1.3,1.4,1.5c0.5,0.1,1,0.1,1.5,0.1c1.2,0,2.5-0.1,3.7,0.1   c0.5,0.1,1,0.2,1.5,0.4c1.4,0.6,2.1,1.7,2.4,3.3c0.3,1.6,0.3,3.2,0,4.8c-0.6,2.7-2.4,4.5-5.3,5C152.6,91.2,151.8,91.3,151.1,91.3z"
       id="path11"
       style="fill:#000000;fill-opacity:1" /><path
       fill="#4A3728"
       d="M128.3,91.3c-1.4,0-2.6-0.1-3.9-0.6c-1.9-0.7-3.1-2.1-3.6-4.1c-0.2-0.7-0.1-1.5,0.5-2   c0.7-0.6,1.4-0.6,2.2-0.3c0.4,0.1,0.7,0.4,0.8,0.8c0.1,0.2,0.2,0.4,0.2,0.6c0.4,1,1.1,1.7,2.1,1.9c1,0.2,2.1,0.2,3.1,0   c1.1-0.3,1.7-1,2-2.1c0.2-0.8,0.2-1.7,0.1-2.6c-0.1-1.1-0.7-1.6-1.8-1.8c-0.8-0.1-1.6-0.1-2.4-0.1c-0.9,0-1.8,0-2.7-0.2   c-2.3-0.4-3.5-1.6-3.9-4c-0.2-1.3-0.2-2.6,0-4c0.5-2.7,2.2-4.5,4.9-5.1c1.8-0.4,3.7-0.4,5.5,0.2c1.8,0.6,3,1.9,3.6,3.8   c0.2,0.4,0.2,0.9,0.1,1.4c-0.1,0.4-0.2,0.7-0.5,0.9c-1,0.9-2.6,0.5-3.1-0.7c0,0,0-0.1-0.1-0.1c-0.3-0.9-0.8-1.7-1.8-2   c-1.2-0.3-2.3-0.3-3.4,0.3c-0.7,0.4-1,1-1.2,1.7c-0.2,0.8-0.3,1.7-0.2,2.5c0.1,1,0.6,1.5,1.6,1.7c0.5,0.1,1,0.1,1.4,0.1   c1.1,0,2.3-0.1,3.4,0.1c2.6,0.4,3.8,1.6,4.2,4.3c0.2,1.5,0.2,3-0.1,4.5c-0.6,2.6-2.5,4.4-5.3,4.8C129.6,91.2,128.9,91.3,128.3,91.3   z"
       id="path13"
       style="fill:#000000;fill-opacity:1" /><path
       fill="#4A3728"
       d="M206.3,81.5c0-2.3,0-4.6,0-6.9c0-0.8,0.1-1.7,0.3-2.5c0.5-2,1.8-3.5,3.8-4.1c2.4-0.7,4.8-0.7,7.1,0   c2.2,0.7,3.5,2.3,3.9,4.7c0.1,0.6,0.2,1.2,0.2,1.8c0,4.9,0,9.7,0,14.6c0,0.1,0,0.2,0,0.2c0,1.6-1.5,2.4-2.9,1.7   c-0.6-0.3-0.8-0.7-0.9-1.3c0-0.3,0-0.7,0-1c0-4.4,0-8.8,0-13.1c0-0.8-0.1-1.6-0.3-2.3c-0.3-1-1-1.7-2-2c-1-0.2-2-0.2-2.9,0   c-1,0.3-1.7,0.9-2,1.9c-0.2,0.8-0.3,1.5-0.3,2.3c0,4.4,0,8.8,0,13.1c0,0.3,0,0.7,0,1c-0.1,1-0.8,1.6-1.9,1.6   c-1.1,0-1.8-0.5-1.9-1.6c0-0.3,0-0.6,0-0.8C206.3,86.3,206.3,83.9,206.3,81.5L206.3,81.5z"
       id="path15"
       style="fill:#000000;fill-opacity:1" /><path
       fill="#4A3728"
       d="M98.9,79.3c0-2.6,0-5.2,0-7.8c0-0.5,0-0.9,0.1-1.4c0.3-1.3,1.1-2,2.4-2.2c0.4-0.1,0.9-0.1,1.3-0.1   c2.8,0,5.5,0,8.3,0c0.2,0,0.4,0,0.6,0c1.4,0.1,2.1,1.5,1.3,2.7c-0.3,0.5-0.8,0.7-1.4,0.7c-0.7,0-1.5,0-2.2,0c-1.8,0-3.7,0-5.5,0   c-1,0-1.1,0.2-1.1,1.1c0,1.4,0,2.8,0,4.3c0,0.5,0,0.5,0.6,0.5c2.1,0,4.2,0,6.3,0c0.4,0,0.7,0,1.1,0.1c0.8,0.2,1.1,0.7,1.2,1.6   c0,0.9-0.4,1.5-1.1,1.7c-0.3,0.1-0.6,0.1-1,0.1c-2.1,0-4.2,0-6.3,0c-0.7,0-0.7,0-0.7,0.7c0,1.5,0,3.2,0,4.7c0,0.2,0,0.4,0,0.6   c0.1,0.3,0.3,0.5,0.6,0.6c0.2,0,0.4,0,0.6,0c2.2,0,4.4,0,6.6,0c0.3,0,0.5,0,0.8,0c1.4,0,2.2,1.1,1.7,2.4c-0.2,0.5-0.5,0.8-1,0.9   c-0.3,0.1-0.6,0.1-0.9,0.1c-2.9,0-5.7,0-8.6,0c-0.3,0-0.6,0-0.8,0c-1.6-0.2-2.6-1.2-2.7-2.8c0-0.6,0-1.1,0-1.7   C98.9,84,98.9,81.7,98.9,79.3L98.9,79.3z"
       id="path17"
       style="fill:#000000;fill-opacity:1" /><path
       fill="#4A3728"
       d="M77.4,80c0-2.8,0-5.7,0-8.5c0-0.5,0-0.9,0.1-1.4c0.3-1.3,1.1-2,2.4-2.2c0.4-0.1,0.8-0.1,1.2-0.1   c2.7,0,5.4,0,8.1,0c0.1,0,0.2,0,0.3,0c1.3,0,1.9,0.6,1.9,1.7c0,1.1-0.6,1.7-1.9,1.7c-1.2,0-2.5,0-3.7,0s-2.4,0-3.6,0   c-0.8,0-1,0.2-1,1c0,1.5,0,3,0,4.5c0,0.8,0,0.8,0.7,0.8c2,0,3.9,0,5.9,0c0.3,0,0.7,0,1,0.1c0.8,0.1,1.2,0.7,1.2,1.5   c0,1-0.3,1.5-1.1,1.8C88.7,81,88.4,81,88.1,81c-2,0-4,0-6,0c-0.9,0-0.8-0.1-0.8,0.8c0,2.1,0,4.4,0,6.5c0,0.2,0,0.5,0,0.7   c0,1.5-0.9,2.3-2.6,1.9c-0.7-0.2-1.1-0.7-1.2-1.4c0-0.3,0-0.6,0-0.9C77.4,85.8,77.4,83,77.4,80z"
       id="path19"
       style="fill:#000000;fill-opacity:1" /><path
       fill="#4A3728"
       d="M218.4,111.1c0-2.7,0-5.5,0-8.2c0-0.3,0-0.5,0-0.8c0.1-1.4,0.8-2.2,2.2-2.4c0.3,0,0.6-0.1,0.9-0.1   c3,0,5.9,0,8.9,0c0.2,0,0.4,0,0.5,0c0.7,0.1,1,0.4,1,1.1c0,0.7-0.3,1-1,1.1c-0.2,0-0.5,0-0.7,0c-2.6,0-5.2,0-7.8,0   c-0.3,0-0.5,0-0.8,0c-0.6,0.1-0.8,0.3-0.9,0.9c0,0.3,0,0.6,0,0.9c0,1.7,0,3.5,0,5.3c0,0.7-0.1,0.7,0.7,0.7c2.4,0,4.9,0,7.3,0   c0.2,0,0.5,0,0.7,0c0.7,0.1,1.1,0.4,1.1,1.1c0,0.7-0.3,1.1-1.1,1.1c-0.7,0-1.5,0-2.2,0c-2,0-4,0-5.9,0c-0.5,0-0.5,0-0.5,0.5   c0,2.2,0,4.5,0,6.6c0,1,0.3,1.3,1.3,1.3c2.7,0,5.5,0,8.2,0c0.2,0,0.5,0,0.7,0c0.6,0.1,0.9,0.5,0.9,1.1s-0.3,0.9-0.9,1   c-0.2,0-0.4,0-0.5,0c-3,0-6.1,0-9.1,0c-2,0-3-0.9-3-3.1C218.4,116.8,218.4,113.9,218.4,111.1z"
       id="path21"
       style="fill:#000000;fill-opacity:1" /><path
       fill="#4A3728"
       d="M257,78.6c0-3,0-5.8,0-8.8c0-0.3,0-0.6,0.1-0.9c0.2-0.9,0.7-1.3,1.7-1.4c1.4-0.1,2.1,0.6,2.1,2   c0,2.5,0,5.1,0,7.6c0,2.8,0,5.7,0,8.5c0,0.3,0,0.5,0,0.8c0,0.8,0.2,0.9,1,0.9c2.2,0,4.3,0,6.5,0c0.3,0,0.6,0,0.8,0   c1,0.1,1.5,0.7,1.6,1.7c0,1-0.5,1.6-1.5,1.7c-0.2,0-0.4,0-0.6,0c-2.6,0-5.2,0-7.8,0c-0.5,0-1.1,0-1.6-0.2c-1.1-0.3-1.7-1-2-2.1   c-0.1-0.4-0.1-0.9-0.1-1.4C257,84.4,257,81.6,257,78.6z"
       id="path23"
       style="fill:#000000;fill-opacity:1" /><path
       fill="#4A3728"
       d="M167.8,79.3c0-3,0-6,0-9c0-0.3,0-0.5,0-0.8c0-1.4,0.7-2.1,2.2-2c0.9,0.1,1.5,0.6,1.6,1.5c0,0.3,0,0.6,0,0.8   c0,6.3,0,12.6,0,18.9c0,0.1,0,0.2,0,0.3c0,1.5-0.8,2.2-2.5,2c-0.7-0.1-1.1-0.5-1.3-1.2c-0.1-0.3-0.1-0.7-0.1-1.1   C167.8,85.7,167.8,82.6,167.8,79.3z"
       id="path25"
       style="fill:#000000;fill-opacity:1" /><path
       fill="#4A3728"
       d="M222.3,44.8c-0.1,0-0.2,0.1-0.3,0.1c-1.2,0.4-2.5,0.8-3.8,1c-1.5,0.2-2.9,0.2-4.3-0.4   c-0.8-0.3-1.4-0.9-1.7-1.7c-0.2-0.6-0.3-1.2-0.3-1.9c0-1.5,0.3-3.1,0.6-4.5c0.9-4.1,1.9-8.2,2.9-12.3c1.4-5.8,2.7-11.6,4.1-17.4   c0.2-0.8-0.3-1.3-1.1-1.1c-1.9,0.4-3.8,0.8-5.7,1.2c-2.3,0.5-4.6,0.9-6.9,1.4c-0.3,0.1-0.6,0.1-0.9-0.1c-2.4-1.8-5.3-2.7-8.3-3.1   c-2.3-0.3-4.6-0.2-6.9,0.1c-2.3,0.3-4.5,1-6.6,1.7c-3.7,1.2-7,3.4-10.2,5.8c-5.1,3.9-9.9,8.1-14.4,12.7c-0.2,0.2-0.4,0.5-0.7,0.6   c-0.1-0.2,0-0.4,0.1-0.6c0.8-3.7,1.3-7.3,1-11.1c-0.1-1.7-0.5-3.5-1.4-5c-1.1-2.1-2.8-3.6-5.2-4.1c-2.6-0.6-5-0.2-7.2,1.2   c-1.8,1.1-3.1,2.7-3.4,5c-0.2,1.2-0.1,2.5,0.1,3.8c0.1,0.8,0.4,1.6,0.8,2.4c0.8,1.4,1.7,2.6,2.9,3.8c0.8,0.7,1.7,1.5,2.5,2.2   c0.9,0.8,1.3,1.7,1.4,2.8c0.2,1.7,0.2,3.5,0,5.3c-0.5,4-2,7.3-5,10c-3.2,3-6.9,4.3-11.2,3.8c-2.6-0.3-4.5-1.5-5.5-4.1   c-0.8-2-0.9-4.2-0.5-6.3c0.5-2.8,1.4-5.6,2.3-8.3c0.9-3.1,1.8-6.1,2.2-9.3c0.2-1.4,0.3-3,0-4.4c-0.6-3.3-2.5-5.5-5.6-6.7   c-2.9-1.1-5.9-1.1-8.8-0.6c-3.2,0.6-6.3,1.9-9.3,3.2c-0.3,0.1-0.4,0.3-0.5,0.5c-0.2,1-0.5,2.1-0.7,3.2c0,0.2-0.2,0.3,0,0.5   c0.5-0.2,1-0.3,1.6-0.5c1.6-0.6,3.3-0.8,5-0.7c2.2,0.2,3.2,1.1,3.5,3.3c0.2,1.5,0,3.1-0.3,4.6c0,0.2-0.2,0.4-0.3,0.5   c-4.1,5.5-8.6,10.6-13.8,15.1c-4.2,3.6-8.8,6.6-14,8.4c-2.8,1-5.7,1.7-8.7,1.4c-3.3-0.3-5.8-1.9-7.1-5.1c-1-2.3-1.3-4.9-1.5-7.4   c0-0.4,0.1-0.5,0.5-0.5c1.7-0.2,3.4-0.4,5.1-0.6c4.1-0.6,8.1-1.6,12.1-2.8c3.1-0.9,5.9-2.3,8.4-4.5c2.5-2.2,4-4.9,4.2-8.3   c0.1-2.4-0.3-4.7-2-6.6c-1.1-1.3-2.5-2.1-4-2.7c-2.7-1.1-5.5-1.4-8.3-1.6c-0.2,0-0.5,0.1-0.7-0.1c-0.8,0-1.6,0-2.4,0   c-0.1,0.2-0.3,0.1-0.4,0.1c-1.5,0-3,0.2-4.5,0.5c-6.4,1.2-12,4-16.5,9.1c-5.7,6.6-7.9,14.2-6.5,22.9c1,5.9,4.3,10.2,9.7,12.7   c2.9,1.3,6,1.9,9.1,2.1c4.3,0.3,8.4-0.6,12.4-2.2c3.9-1.5,7.4-3.9,10.7-6.4c5.3-4.1,10.2-8.7,15-13.4c0.2-0.2,0.4-0.5,0.7-0.6   c-0.1,0.7-0.3,1.3-0.5,1.9c-0.8,2.4-1.3,4.9-1.2,7.4c0.2,2.5,0.8,5,2.2,7c1.7,2.4,4.1,4.1,6.8,5.1c2.9,1,5.9,1.3,8.9,1.2   c3.9-0.1,7.7-1.1,11.2-3c4.3-2.3,7.8-5.7,10.5-9.8c1.8-2.5,3.6-5.1,5.6-7.4c3.6-4.3,7.5-8.3,11.8-11.8c0.3-0.2,0.5-0.4,0.9-0.7   c0,0.4-0.2,0.6-0.3,0.8c-0.6,1.2-1.2,2.5-1.7,3.9c-1.5,4.2-2,8.4-1.7,12.8c0.2,2.3,0.6,4.6,1.6,6.7c1.6,3.6,4,6.1,7.7,7.3   c2,0.7,4.1,0.9,6.2,0.9c1.7,0,3.4-0.2,5.1-0.8c3.2-1.1,6.1-2.8,8.6-5.1c0.4-0.3,0.8-0.7,1.2-1c0.3-0.2,0.5-0.2,0.6,0.2   c0,0.1,0.1,0.1,0.1,0.2c1.2,2.6,3.2,4.4,5.9,5.3c1.2,0.4,2.4,0.6,3.6,0.6c2.6,0.2,5.1,0,7.6-0.9c2.2-0.8,4.4-1.6,6.6-2.4   c0.4-0.1,0.5-0.3,0.6-0.7c0.2-1,0.5-2.1,0.8-3.2C222.3,45.1,222.4,45,222.3,44.8z M71.5,24.4c0.5-2.7,1.3-5.5,2.5-8   c0.8-1.6,1.7-3.3,2.9-4.7c0.6-0.7,1.2-1.2,2-1.7c2.2-1.3,4.8-0.7,6.2,1.6c0.5,0.8,0.8,1.7,1,2.7c0.3,2,0.3,4.1-0.1,6.1   c-0.5,2.5-1.9,4.5-4.1,5.8c-1.5,0.9-3,1.5-4.7,1.9c-2,0.4-4,0.8-6,1c-0.1,0-0.2,0-0.4,0C70.9,27.5,71.2,26,71.5,24.4z M202.3,17.7   c-1.7,7.3-3.4,14.8-5.1,22.1c-0.1,0.3-0.2,0.6-0.2,0.9c-0.1,0.8-0.5,1.3-1,1.8c-1.2,1.1-2.4,2.1-3.9,2.8c-1.6,0.7-3.2,0.8-4.9,0.4   c-1.9-0.5-3.1-1.6-3.9-3.5c-0.5-1.2-0.8-2.5-0.9-3.8c-0.1-1.3-0.2-2.6-0.1-4c0.2-5.2,1.2-10.3,3.3-15.1c1.2-2.6,2.7-5,4.8-6.9   c2.2-2,4.7-2.7,7.6-2.1c2.2,0.5,3.6,2,4.1,4.3c0.1,0.6,0.2,1.1,0.3,1.7C202.4,16.9,202.4,17.3,202.3,17.7z"
       id="path27"
       style="fill:#000000;fill-opacity:1" /><path
       fill="#4A3728"
       d="M20.1,72.4c-0.5-2.3-2-3.8-4.3-4.3c-0.6-0.1-1.3-0.2-1.9-0.2c-1.7,0-3.4,0-5.1,0c-0.3,0-0.6,0-0.8,0.1   c-1.1,0.2-1.9,0.8-2.2,1.8c-0.1,0.2-0.1,0.4-0.3,0.6c0,6.5,0,13,0,19.5c0.2,0,0.2,0.2,0.3,0.4C6,90.8,6.3,91,6.7,91.2   c1.5,0.5,2.7-0.3,2.7-1.9c0-0.2,0-0.4,0-0.6c0-1.8,0-3.7,0-5.4c0-0.2,0-0.4,0-0.5c0-0.2,0.1-0.3,0.3-0.3c0.2,0,0.5,0,0.7,0   c1.5,0,3,0.1,4.5-0.1c2.9-0.3,4.7-1.8,5.3-4.7C20.5,75.8,20.5,74.1,20.1,72.4z M16.3,76.9c-0.3,1-0.9,1.5-1.9,1.7   c-0.4,0.1-0.8,0.1-1.1,0.1c-1,0-2.1,0-3.1,0c-0.8,0-0.7,0.1-0.7-0.8s0-1.8,0-2.7l0,0c0-1,0-1.9,0-3c0-0.7,0.2-0.9,0.9-0.9   c1.1,0,2.2,0,3.3,0c1.7,0.1,2.6,0.9,2.8,2.6C16.6,74.9,16.6,76,16.3,76.9z"
       id="path29"
       style="fill:#000000;fill-opacity:1" /><path
       fill="#4A3728"
       d="M121.9,116.4c0-0.5-0.1-1-0.1-1.5c-0.3-1.4-1-2.5-2.4-3.2c-0.2-0.1-0.4-0.1-0.5-0.3c0.1,0,0.1-0.1,0.2-0.1   c1.6-0.8,2.4-2.1,2.6-4c0.1-1.1,0.1-2.3-0.1-3.5c-0.3-1.9-1.4-3.3-3.3-3.9c-0.4-0.1-0.8-0.2-1.3-0.3c-2.3-0.3-4.7-0.1-7.1-0.1   c-0.2,0-0.4,0-0.5,0.1c-1,0.2-1.7,0.8-1.9,1.9c-0.1,0.3-0.1,0.6-0.1,0.9c0,6.3,0,12.6,0,18.9c0,0.6,0.2,1.1,0.7,1.5   c0.3,0,0.6,0,0.9,0c0.7-0.1,1-0.5,1-1.2c0-0.7,0-1.3,0-2c0-1.9,0-4,0-5.9c0-0.4,0-0.8,0.6-0.8c2,0,3.9-0.1,5.9,0   c1.5,0.1,2.3,0.9,2.5,2.4c0.1,0.6,0.1,1.1,0.1,1.7c0,1.5,0,3,0,4.5c0,0.9,0.2,1.1,1,1.3c0.3,0,0.6,0,0.9,0c0.6-0.3,0.8-0.9,0.8-1.5   C121.9,119.7,121.9,118.1,121.9,116.4z M116.7,110.2c-0.4,0.1-0.8,0.2-1.3,0.2c-1.7,0-3.3,0-5,0c-0.4,0-0.5-0.1-0.5-0.5   c0-1.1,0-2.3,0-3.5s0-2.1,0-3.3c0-1,0.3-1.3,1.2-1.3c1.5,0,2.9,0,4.4,0c0.1,0,0.2,0,0.3,0c2.1,0.1,3.1,1.1,3.3,3.2   c0.1,0.8,0.1,1.7-0.1,2.5C118.9,108.9,118,109.9,116.7,110.2z"
       id="path31"
       style="fill:#000000;fill-opacity:1" /><path
       fill="#4A3728"
       d="M208.4,121.4c0-0.5,0-1,0-1.5c0-1.4,0-3-0.1-4.4c-0.1-1.8-0.9-3.2-2.6-3.9c-0.1,0-0.2-0.1-0.4-0.2   c0.1-0.1,0.2-0.1,0.3-0.2c1.4-0.7,2.2-1.9,2.5-3.5c0.2-1.3,0.2-2.7,0-4.1c-0.4-1.8-1.4-3.1-3.2-3.7c-0.4-0.1-0.9-0.3-1.3-0.3   c-2.3-0.2-4.7-0.2-7-0.1c-1.7,0-2.5,1-2.5,2.6c0,6.4,0,12.8,0,19.2c0,0.6,0.2,1.1,0.8,1.3c0.3,0,0.6,0,0.9,0c0.6-0.2,0.9-0.6,1-1.2   c0-0.3,0-0.7,0-1c0-2.3,0-4.6,0-6.9c0-0.6,0.2-0.9,0.8-0.9c1.3,0,2.7,0,4,0c0.6,0,1.3,0,1.9,0.1c1.2,0.2,1.9,1,2.1,2.2   c0.1,0.4,0.1,0.8,0.1,1.1c0,1.6,0,3.3,0,4.9c0,0.7,0.1,1.4,1,1.6c0.4,0,0.7,0,1.1,0C208.2,122.5,208.4,122,208.4,121.4z    M203.2,110.2c-0.5,0.1-0.9,0.2-1.4,0.2c-0.8,0-1.5,0-2.3,0l0,0c-0.8,0-1.7,0-2.5,0c-0.4,0-0.5,0-0.5-0.5c0-2.3,0-4.7,0-6.9   c0-0.8,0.3-1.1,1.1-1.1c1.6,0,3.2,0,4.9,0c0.3,0,0.5,0.1,0.7,0.1c1.4,0.3,2.3,1.1,2.5,2.6c0.2,1,0.2,2.1,0,3.2   C205.3,109,204.5,109.9,203.2,110.2z"
       id="path33"
       style="fill:#000000;fill-opacity:1" /><path
       fill="#4A3728"
       d="M183.1,118.6c0-4.1,0-8.1,0-12.2c0-1-0.1-1.9-0.3-3c-0.5-1.8-1.6-3.2-3.4-3.8c-2.4-0.8-4.8-0.8-7.2,0   c-1.6,0.6-2.7,1.7-3.3,3.5c-0.3,0.9-0.5,1.9-0.5,3c0,5.1,0,10.2,0,15.4c0,0.6,0.1,1.1,0.6,1.4c0.4,0,0.7,0,1.1,0   c0.8-0.2,0.8-0.8,0.8-1.4c0-2,0-4.1,0-6c0-0.5,0.1-0.9,0.8-0.9c2.7,0,5.3,0,8,0c0.5,0,0.7,0.2,0.7,0.7c0,0.3,0,0.5,0,0.8   c0,1.7,0,3.6,0,5.3c0,0.7,0.2,1.4,1,1.6c0.3,0,0.6,0,0.9,0c0.6-0.3,0.8-0.8,0.8-1.4C183.1,120.5,183.1,119.5,183.1,118.6z    M180.7,111.5c0,0.5,0,0.5-0.6,0.5c-1.5,0-2.9,0-4.4,0c-1.5,0-2.9,0-4.4,0c-0.3,0-0.5,0-0.5-0.4c0.1-2.1-0.1-4.3,0.1-6.3   c0-0.5,0.2-0.9,0.3-1.3c0.4-1.1,1.2-1.9,2.4-2.3c1.4-0.4,2.8-0.4,4.3,0c1.1,0.3,1.9,1.1,2.3,2.2c0.3,0.7,0.4,1.5,0.4,2.2   C180.7,107.9,180.7,109.7,180.7,111.5z"
       id="path35"
       style="fill:#000000;fill-opacity:1" /><path
       fill="#4A3728"
       d="M83.3,106.2c0-0.6-0.1-1.2-0.1-1.7c-0.4-2.6-1.9-4.4-4.4-5c-1.9-0.5-3.9-0.4-5.8,0.1c-2,0.6-3.4,1.9-3.9,4   c-0.2,0.8-0.3,1.6-0.3,2.4c0,5.2,0,10.3,0,15.5c0,0.6,0.2,1.1,0.7,1.4c0.3,0,0.6,0,0.9,0c0.6-0.3,0.8-0.8,0.8-1.4   c0-2.1,0-4.3,0-6.4c0-0.7,0-0.7,0.7-0.7c2.8,0,5.7,0,8.5,0c0.7,0,0.7,0,0.7,0.7c0,2.1,0,4.3,0,6.3c0,0.7,0.2,1.2,0.8,1.5   c0.3,0,0.6,0,0.9,0c0.6-0.3,0.8-0.9,0.8-1.5C83.3,116.3,83.3,111.3,83.3,106.2z M80.7,111.4c0,0.6,0,0.6-0.7,0.6   c-1.4,0-2.9,0-4.3,0c-1.4,0-2.9,0-4.3,0c-0.5,0-0.5,0-0.5-0.6c0-1.7,0-3.4,0-5.1c0-0.7,0.1-1.4,0.3-2.1c0.4-1.4,1.3-2.3,2.7-2.6   c1.3-0.3,2.5-0.3,3.8,0c1.7,0.4,2.6,1.6,2.9,3.4c0.1,0.5,0.2,1.1,0.2,1.7C80.7,108.2,80.7,109.9,80.7,111.4z"
       id="path37"
       style="fill:#000000;fill-opacity:1" /><path
       fill="#4A3728"
       d="M246.8,72.8c-0.5-2.6-2-4.4-4.6-5c-1.9-0.5-3.9-0.4-5.8,0c-1.2,0.3-2.2,0.8-3,1.6c-1.1,1.2-1.6,2.6-1.7,4.3   c-0.2,2.6,0,5.2-0.1,7.3c0,3,0,5.4,0,7.8c0,0.3,0,0.7,0.1,1c0.1,0.5,0.4,0.9,0.8,1.1c1.4,0.6,2.7-0.2,2.8-1.7c0-0.2,0-0.3,0-0.5   c0-1.6,0-3.3,0-5c0-0.6,0-0.6,0.6-0.6c2.2,0,4.5,0,6.7,0c0.6,0,0.6,0,0.6,0.6c0,0.4,0,0.8,0,1.1c0,1.4,0,2.8,0,4.3   c0,0.8,0.3,1.4,1,1.7c1.5,0.6,2.8-0.2,2.8-1.8c0-0.1,0-0.2,0-0.2c0-4.7,0-9.4,0-14.1C247,74.1,246.9,73.4,246.8,72.8z M242.6,79.7   c-1.1,0-2.3,0-3.4,0c-1.1,0-2.2,0-3.3,0c-0.6,0-0.6,0-0.6-0.6c0-1.3,0-2.6,0-4c0-0.7,0.1-1.4,0.4-2.1c0.4-1,1-1.7,2.1-1.9   c1-0.2,2-0.2,2.9,0c1.1,0.3,1.8,1,2.2,2.1c0.2,0.7,0.3,1.4,0.3,2.1c0,1.2,0,2.5,0,3.8C243.1,79.7,243.1,79.7,242.6,79.7z"
       id="path39"
       style="fill:#000000;fill-opacity:1" /><path
       fill="#4A3728"
       d="M43.5,84c-0.1-1.8-0.8-3.3-2.5-4.2c-0.1,0-0.2-0.1-0.2-0.2v-0.1c0.1-0.1,0.2-0.2,0.3-0.2   c1.1-0.7,1.8-1.8,2.1-3.2c0.3-1.5,0.3-3.1-0.1-4.6s-1.4-2.6-2.8-3.3c-0.7-0.3-1.5-0.5-2.3-0.5c-2.2-0.1-4.4-0.1-6.5,0   c-0.2,0-0.3,0-0.5,0c-1.4,0.2-2.3,1.1-2.5,2.5c-0.1,0.4-0.1,0.8-0.1,1.1c0,5.7,0,11.5,0,17.2c0,0.3,0,0.7,0.1,1   c0.1,0.7,0.5,1.1,1.2,1.3c1.2,0.3,2.5,0,2.6-1.8c0-0.3,0-0.5,0-0.8c0-2.1,0-4.3,0-6.3c0-0.5,0-0.5,0.5-0.5c1.2,0,2.4,0,3.7,0   c0.3,0,0.7,0,1,0.1c1.4,0.2,2,0.9,2.2,2.3c0.2,1.5,0,3.1,0.1,4.6c0,0.4,0,0.8,0,1.1c0.1,0.5,0.3,0.9,0.7,1.2c1.4,0.9,3,0,3.1-1.6   C43.5,87.5,43.5,85.7,43.5,84z M39.3,76.2c-0.2,0.9-0.8,1.4-1.6,1.6c-0.4,0.1-0.8,0.2-1.2,0.2c-1.2,0-2.5,0-3.7,0   c-0.4,0-0.5-0.1-0.5-0.5c0-0.9,0-1.8,0-2.7c0-0.9,0-1.7,0-2.6c0-0.6,0.2-0.8,0.8-0.8c1.2,0,2.4,0,3.6,0c0.3,0,0.7,0.1,1,0.1   c0.9,0.2,1.5,0.7,1.7,1.6C39.5,74.1,39.5,75.1,39.3,76.2z"
       id="path41"
       style="fill:#000000;fill-opacity:1" /><path
       fill="#4A3728"
       d="M67.8,79c0-1.4,0.1-3.4,0-5.2c-0.2-3.4-2-5.5-5.2-6.1c-1.8-0.4-3.6-0.3-5.4,0.1c-2.4,0.6-4,2.1-4.6,4.7   c-0.2,0.7-0.3,1.4-0.3,2.1c0,3.3,0,6.4,0,9.7c0,0.6,0.1,1.1,0.2,1.7c0.5,2.7,2.1,4.5,4.8,5.1c1.8,0.4,3.6,0.4,5.4,0.1   c2.7-0.5,4.5-2.1,5.1-4.9C68,85.6,68,84.8,68,84C67.8,82.4,67.8,80.9,67.8,79z M64,83.6c0,0.7-0.1,1.4-0.4,2.1   c-0.4,1-1,1.7-2.1,1.9c-1,0.3-2.1,0.3-3.1,0c-1-0.3-1.6-0.9-2-1.8C56.1,85,56,84.2,56,83.3c0-2.5,0-5.2,0-7.7   c0-0.8,0.1-1.6,0.3-2.3c0.4-1,1-1.7,2.1-2c1-0.3,2.1-0.3,3.1,0c0.9,0.3,1.6,0.9,2,1.8c0.3,0.7,0.4,1.5,0.4,2.2c0,1.4,0,2.7,0,4.2   C64,80.7,64,82.2,64,83.6z"
       id="path43"
       style="fill:#000000;fill-opacity:1" /><path
       fill="#4A3728"
       d="M196.9,79.4c0-1.7,0-3.4,0-5.1c0-0.3,0-0.5,0-0.8c-0.3-3.1-1.9-5.1-4.7-5.8c-2-0.5-4-0.5-6,0   c-2.3,0.6-3.8,2-4.5,4.4c-0.2,0.8-0.3,1.6-0.3,2.5c0,3.2,0,6.2,0,9.4c0,0.6,0.1,1.2,0.2,1.7c0.5,2.6,1.8,4.4,4.4,5.1   c2.2,0.6,4.4,0.6,6.6,0c2.1-0.6,3.5-2,4.1-4.2c0.3-0.9,0.3-1.8,0.3-2.7C196.9,82.4,196.9,80.9,196.9,79.4L196.9,79.4z M193,79.4   L193,79.4c0,1.4,0,2.7,0,4.2c0,0.7-0.1,1.4-0.3,2c-0.4,1.1-1.2,1.8-2.3,2.1c-0.9,0.2-1.7,0.2-2.6,0c-1.2-0.3-2-1-2.4-2.2   c-0.2-0.8-0.3-1.6-0.3-2.5c0-2.3,0-4.8,0-7.1c0-0.8,0.1-1.6,0.3-2.4c0.4-1.4,1.3-2.1,2.7-2.3c0.7-0.1,1.3-0.1,2,0   c1.4,0.2,2.3,1,2.7,2.3c0.2,0.6,0.3,1.2,0.3,1.9C193,76.7,193,78,193,79.4z"
       id="path45"
       style="fill:#000000;fill-opacity:1" /></g></svg>